<mxfile host="app.diagrams.net" modified="2023-05-10T01:48:34.699Z" agent="Mozilla/5.0 (Windows NT 10.0; Win64; x64) AppleWebKit/537.36 (KHTML, like Gecko) Chrome/111.0.0.0 Safari/537.36" version="21.2.9" etag="IE7Qct1491bqKg4oA6A8" type="github">
  <diagram name="第 1 页" id="zI3zzHbirQR_0YygfHKY">
    <mxGraphModel>
      <root>
        <mxCell id="0" />
        <mxCell id="1" parent="0" />
      </root>
    </mxGraphModel>
  </diagram>
</mxfile>
